<mxfile host="app.diagrams.net" modified="2023-02-01T07:47:19.534Z" agent="5.0 (Windows NT 10.0; Win64; x64) AppleWebKit/537.36 (KHTML, like Gecko) Chrome/109.0.0.0 Safari/537.36 Edg/109.0.1518.70" etag="20Jl_Us6wROhEbjm3C6l" version="20.8.13" type="github" pages="2">
  <diagram name="第 1 页" id="ASWzrfbVhf8jsm1rSSK5">
    <mxGraphModel dx="1839" dy="834" grid="1" gridSize="10" guides="1" tooltips="1" connect="1" arrows="1" fold="1" page="1" pageScale="1" pageWidth="827" pageHeight="1169" math="0" shadow="0">
      <root>
        <mxCell id="0" />
        <mxCell id="1" parent="0" />
        <mxCell id="_Ad0WWnmR9408R13YCJ2-4" value="" style="group" vertex="1" connectable="0" parent="1">
          <mxGeometry x="270" y="90" width="400" height="240" as="geometry" />
        </mxCell>
        <mxCell id="_Ad0WWnmR9408R13YCJ2-1" value="hello world" style="rounded=0;whiteSpace=wrap;html=1;fillColor=#dae8fc;strokeColor=#2280d8;" vertex="1" parent="_Ad0WWnmR9408R13YCJ2-4">
          <mxGeometry y="50" width="400" height="190" as="geometry" />
        </mxCell>
        <mxCell id="_Ad0WWnmR9408R13YCJ2-2" value="div::before {}" style="text;strokeColor=none;align=center;fillColor=none;html=1;verticalAlign=middle;whiteSpace=wrap;rounded=0;" vertex="1" parent="_Ad0WWnmR9408R13YCJ2-4">
          <mxGeometry x="150" width="100" height="30" as="geometry" />
        </mxCell>
        <mxCell id="_Ad0WWnmR9408R13YCJ2-3" value="before" style="rounded=0;whiteSpace=wrap;html=1;strokeColor=#b85450;fillColor=#f8cecc;" vertex="1" parent="_Ad0WWnmR9408R13YCJ2-4">
          <mxGeometry x="20" y="115" width="100" height="55" as="geometry" />
        </mxCell>
        <mxCell id="_Ad0WWnmR9408R13YCJ2-5" value="hello world" style="rounded=0;whiteSpace=wrap;html=1;fillColor=#dae8fc;strokeColor=#2280d8;" vertex="1" parent="1">
          <mxGeometry x="270" y="470" width="400" height="190" as="geometry" />
        </mxCell>
        <mxCell id="_Ad0WWnmR9408R13YCJ2-6" value="after" style="rounded=0;whiteSpace=wrap;html=1;strokeColor=#b85450;fillColor=#f8cecc;" vertex="1" parent="1">
          <mxGeometry x="540" y="537.5" width="100" height="55" as="geometry" />
        </mxCell>
        <mxCell id="_Ad0WWnmR9408R13YCJ2-7" value="div::after" style="text;html=1;align=center;verticalAlign=middle;resizable=0;points=[];autosize=1;strokeColor=none;fillColor=none;" vertex="1" parent="1">
          <mxGeometry x="435" y="420" width="70" height="30" as="geometry" />
        </mxCell>
      </root>
    </mxGraphModel>
  </diagram>
  <diagram id="E70gjb858R_JRFZawyTk" name="第 2 页">
    <mxGraphModel dx="2426" dy="834" grid="1" gridSize="10" guides="1" tooltips="1" connect="1" arrows="1" fold="1" page="1" pageScale="1" pageWidth="827" pageHeight="1169" math="0" shadow="0">
      <root>
        <mxCell id="0" />
        <mxCell id="1" parent="0" />
        <mxCell id="hlgf_eU-KlOcbkfx91uG-7" value="" style="group" vertex="1" connectable="0" parent="1">
          <mxGeometry x="-380" y="240" width="770" height="255" as="geometry" />
        </mxCell>
        <mxCell id="hlgf_eU-KlOcbkfx91uG-2" value="清除浮动" style="text;html=1;align=center;verticalAlign=middle;resizable=0;points=[];autosize=1;strokeColor=none;fillColor=none;" vertex="1" parent="hlgf_eU-KlOcbkfx91uG-7">
          <mxGeometry x="335" width="70" height="30" as="geometry" />
        </mxCell>
        <mxCell id="hlgf_eU-KlOcbkfx91uG-6" value="" style="group" vertex="1" connectable="0" parent="hlgf_eU-KlOcbkfx91uG-7">
          <mxGeometry y="45" width="770" height="210" as="geometry" />
        </mxCell>
        <mxCell id="hlgf_eU-KlOcbkfx91uG-1" value="" style="whiteSpace=wrap;html=1;strokeColor=#006EAF;fillColor=#1ba1e2;fontColor=#ffffff;" vertex="1" parent="hlgf_eU-KlOcbkfx91uG-6">
          <mxGeometry width="770" height="210" as="geometry" />
        </mxCell>
        <mxCell id="hlgf_eU-KlOcbkfx91uG-3" value="浮动盒1" style="whiteSpace=wrap;html=1;strokeColor=#10739e;fillColor=#b1ddf0;" vertex="1" parent="hlgf_eU-KlOcbkfx91uG-6">
          <mxGeometry x="40" y="30" width="220" height="150" as="geometry" />
        </mxCell>
        <mxCell id="hlgf_eU-KlOcbkfx91uG-4" value="浮动盒2" style="whiteSpace=wrap;html=1;strokeColor=#10739e;fillColor=#b1ddf0;" vertex="1" parent="hlgf_eU-KlOcbkfx91uG-6">
          <mxGeometry x="300" y="30" width="220" height="150" as="geometry" />
        </mxCell>
        <mxCell id="hlgf_eU-KlOcbkfx91uG-5" value="clear:both" style="whiteSpace=wrap;html=1;strokeColor=#b46504;fillColor=#fad7ac;" vertex="1" parent="hlgf_eU-KlOcbkfx91uG-6">
          <mxGeometry x="560" y="30" width="170" height="150" as="geometry" />
        </mxCell>
      </root>
    </mxGraphModel>
  </diagram>
</mxfile>
